<svg
xmlns:dc="http://purl.org/dc/elements/1.1/"
xmlns:cc="http://creativecommons.org/ns#"
xmlns:rdf="http://www.w3.org/1999/02/22-rdf-syntax-ns#"
xmlns:svg="http://www.w3.org/2000/svg"
xmlns="http://www.w3.org/2000/svg"
viewBox="0 0 354.32501 323.88751"
height="323.88751"
width="354.32501"
xml:space="preserve"
version="1.1"
id="svg2"><metadata
id="metadata8"><rdf:RDF><cc:Work
rdf:about=""><dc:format>image/svg+xml</dc:format><dc:type
rdf:resource="http://purl.org/dc/dcmitype/StillImage" /></cc:Work></rdf:RDF></metadata><defs
id="defs6" /><g
transform="matrix(1.25,0,0,-1.25,0,323.8875)"
id="g10"><g
transform="scale(0.1,0.1)"
id="g12"><path
id="path14"
style="fill:#66cbba;fill-opacity:1;fill-rule:nonzero;stroke:none"
d="M 782.223,391.09 391.117,0 0,391.078 782.223,391.09" /><path
id="path16"
style="fill:#2e323c;fill-opacity:1;fill-rule:nonzero;stroke:none"
d="m 2696.37,2172.6 c -76.16,-113.84 -207.9,-298.01 -346.61,-159.32 l 350.97,350.97 c -31.49,33.7 -55.44,61.93 -73.72,80.27 -189.22,189.75 -402.4,192.2 -569.52,25.55 -111.66,-111.34 -140.92,-238.77 -108.43,-359.89 l -109.98,125.24 c -31.85,-17.6 -166.62,-136.17 -65.58,-315.72 l -125.84,104.65 -167.11,-166.64 225.73,-225.73 c -174.38,138.39 -362.32,124.77 -513.14,-25.61 -161.47,-161.03 -150.13,-356.14 -29.16,-516.68 l -24.43,24.2 C 980.059,1273.38 806.699,1217.1 720.945,1131.34 654.691,1065.08 614.086,973.871 630.73,910.52 l -346.339,346.32 -184.055,-183.97 681.875,-681.792 365.969,0 -245.668,245.711 C 773.461,768 771.211,837.461 833.977,899.809 894.457,959.891 964.719,922.5 1088.52,799.031 L 1331.29,556.34 1514.28,739.309 1283.84,969.66 c 166.13,-125.558 365.12,-132.269 542.64,44.74 1.08,1.1 2.07,2.22 3.15,3.32 l 0.08,-0.1 C 1938.48,1118.21 1970.3,1216 1970.3,1216 l -138.28,92.89 c -76.15,-113.83 -207.64,-298.4 -346.36,-159.71 l 351.71,351.71 219.24,-219.24 191.22,191.22 -274.33,274.33 c -128.15,128.15 -52.19,248.48 1.08,293.79 24.95,-52.86 61.47,-103.61 107.9,-150.17 177.4,-177.89 406.72,-213.76 608.34,-12.72 1.09,1.1 2.08,2.22 3.15,3.32 l 0.09,-0.1 c 108.75,100.59 140.59,198.38 140.59,198.38 l -138.28,92.9 z m -505.51,170.24 c 61.44,61.27 123.82,35.37 193.71,-32.56 L 2217.7,2143.4 c -81.66,97.01 -77.52,148.91 -26.84,199.44 z M 1353.6,1279.3 c -81.66,97 -77.76,149.3 -27.1,199.83 61.47,61.28 123.83,35.37 193.73,-32.56 L 1353.6,1279.3" /></g></g>
</svg>


